<svg width="99" height="99" viewBox="0 0 99 99" fill="none" xmlns="http://www.w3.org/2000/svg">
<path d="M20.3757 7.57998C26.8187 4.89992 32.5849 2.51763 38.4865 0.0541382C49.2338 33.1624 49.3421 65.5669 38.5406 98.8917C32.8827 96.5907 27.0082 94.2084 20.3486 91.5283C25.7088 83.4881 30.1755 76.0976 35.3462 69.2486C40.5168 62.3724 42.7367 54.8737 41.5455 46.5898C40.8958 41.9877 39.5422 37.169 37.2141 33.1895C32.3142 24.7703 26.548 16.8384 20.3757 7.57998Z" fill="#4A90E2"/>
<path d="M58.5465 0C64.4751 2.49057 70.3225 4.95406 76.7114 7.63412C70.8639 16.4052 65.6662 24.283 60.4144 32.1066C53.2134 42.8811 53.2134 56.0919 60.4415 66.9746C65.5038 74.6087 70.5662 82.2158 75.6285 89.8228C75.7639 90.0394 75.7097 90.4184 75.8992 91.7719C70.2954 94.1272 64.421 96.5636 58.5735 99C48.0698 65.8646 48.0698 33.5144 58.5465 0Z" fill="#4A90E2"/>
<path d="M7.65213 19.5184C17.7768 26.8818 26.6833 33.1083 35.2649 39.7407C39.9753 43.3954 39.5963 55.9836 34.7776 59.6653C26.2772 66.1624 17.5332 72.3347 8.6267 78.8589C4.13285 73.8236 1.88593 67.9762 0.234573 61.858C-0.550497 58.9343 1.58814 58.6095 3.67263 58.2034C13.2288 56.3355 22.785 54.4405 32.1517 52.5996C34.2362 47.7268 31.9351 46.2108 27.9015 45.4799C19.6718 43.9909 11.4963 42.1772 3.2395 40.7695C0.613574 40.3092 -0.631714 39.2264 0.315784 36.817C2.48149 31.2403 4.94499 25.8261 7.65213 19.5184Z" fill="#4A90E2"/>
<path d="M89.4073 19.5184C92.5205 26.4216 95.2547 32.5398 98.422 39.5783C91.8437 40.986 86.1858 42.2042 80.5549 43.3954C76.1694 44.3158 71.7026 44.9655 67.3982 46.1837C66.0988 46.5357 64.3662 48.4577 64.4204 49.5677C64.5016 50.8129 66.2342 52.6809 67.5336 52.9786C75.9799 54.9007 84.5073 56.4708 93.0077 58.2034C94.4696 58.5012 95.9044 58.9885 98.3137 59.6382C95.2547 66.4061 92.4392 72.6595 89.3531 79.5086C79.5262 72.3076 70.5114 66 61.9028 59.2321C57.057 55.4151 57.4089 43.3412 62.39 39.443C70.8363 32.8646 79.6074 26.7194 89.4073 19.5184Z" fill="#4A90E2"/>
</svg>
