<svg width="25" height="24" viewBox="0 0 25 24" fill="none" xmlns="http://www.w3.org/2000/svg">
<path d="M7.65879 4.76364L6.65878 5.54453C5.14213 6.72887 4.38379 7.32105 3.97705 8.15601C3.57031 8.99097 3.57031 9.95552 3.57031 11.8846V13.9767C3.57031 17.763 3.57031 19.6562 4.74188 20.8325C5.68497 21.7793 7.09074 21.964 9.57031 22V18.0057C9.57031 17.0738 9.57031 16.6078 9.72255 16.2403C9.92554 15.7502 10.3149 15.3609 10.8049 15.1579C11.1725 15.0057 11.6384 15.0057 12.5703 15.0057C13.5022 15.0057 13.9681 15.0057 14.3357 15.1579C14.8257 15.3609 15.2151 15.7502 15.4181 16.2403C15.5703 16.6078 15.5703 17.0738 15.5703 18.0057V22C18.0499 21.964 19.4556 21.7793 20.3987 20.8325C21.5703 19.6562 21.5703 17.763 21.5703 13.9767V11.8846C21.5703 9.95552 21.5703 8.99097 21.1636 8.15601C20.7568 7.32105 19.9985 6.72887 18.4818 5.54453L17.4818 4.76364C15.1224 2.92121 13.9427 2 12.5703 2C11.1979 2 10.0182 2.92121 7.65879 4.76364Z" stroke="#4A90E2" stroke-width="2" stroke-linejoin="round"/>
</svg>
