<svg width="25" height="24" viewBox="0 0 25 24" fill="none" xmlns="http://www.w3.org/2000/svg">
<path d="M2.39062 7C2.39062 5.59987 2.39062 4.8998 2.66311 4.36502C2.9028 3.89462 3.28525 3.51217 3.75565 3.27248C4.29043 3 4.99049 3 6.39062 3C7.79076 3 8.49083 3 9.02561 3.27248C9.49601 3.51217 9.87845 3.89462 10.1181 4.36502C10.3906 4.8998 10.3906 5.59987 10.3906 7V17C10.3906 18.4001 10.3906 19.1002 10.1181 19.635C9.87845 20.1054 9.49601 20.4878 9.02561 20.7275C8.49083 21 7.79076 21 6.39062 21C4.99049 21 4.29043 21 3.75565 20.7275C3.28525 20.4878 2.9028 20.1054 2.66311 19.635C2.39062 19.1002 2.39062 18.4001 2.39062 17V7Z" stroke="#565656" stroke-width="2" stroke-linecap="round" stroke-linejoin="round"/>
<path d="M6.39062 17H6.3996" stroke="#565656" stroke-width="2" stroke-linecap="round" stroke-linejoin="round"/>
<path d="M2.39062 7H10.3906" stroke="#565656" stroke-width="2" stroke-linecap="round" stroke-linejoin="round"/>
<path d="M11.8392 8.26843C11.4843 6.93838 11.3069 6.27336 11.4291 5.69599C11.5366 5.18812 11.8014 4.72747 12.1857 4.38005C12.6225 3.98508 13.2848 3.80689 14.6093 3.4505C15.9338 3.09412 16.5961 2.91593 17.171 3.03865C17.6768 3.1466 18.1355 3.41256 18.4815 3.79841C18.8748 4.23706 19.0523 4.90209 19.4072 6.23213L21.942 15.7316C22.2969 17.0616 22.4743 17.7266 22.3521 18.304C22.2446 18.8119 21.9798 19.2725 21.5955 19.62C21.1587 20.0149 20.4964 20.1931 19.1719 20.5495C17.8474 20.9059 17.1851 21.0841 16.6102 20.9614C16.1044 20.8534 15.6457 20.5874 15.2997 20.2016C14.9064 19.7629 14.7289 19.0979 14.374 17.7679L11.8392 8.26843Z" stroke="#565656" stroke-width="2" stroke-linecap="round" stroke-linejoin="round"/>
<path d="M18.1719 16.6953L18.1806 16.693" stroke="#565656" stroke-width="2" stroke-linecap="round" stroke-linejoin="round"/>
<path d="M12.3906 8.00019L18.8907 6" stroke="#565656" stroke-width="2" stroke-linecap="round" stroke-linejoin="round"/>
</svg>
