<svg width="25" height="24" viewBox="0 0 25 24" fill="none" xmlns="http://www.w3.org/2000/svg">
<path d="M21.8273 7.14139L21.3337 6.28479C20.9604 5.63696 20.7738 5.31305 20.4562 5.18388C20.1386 5.05472 19.7794 5.15664 19.0611 5.36048L17.8409 5.70418C17.3823 5.80994 16.9011 5.74994 16.4824 5.53479L16.1455 5.34042C15.7864 5.11043 15.5102 4.77133 15.3573 4.37274L15.0234 3.37536C14.8038 2.71534 14.694 2.38533 14.4326 2.19657C14.1713 2.00781 13.8241 2.00781 13.1297 2.00781H12.0149C11.3206 2.00781 10.9734 2.00781 10.712 2.19657C10.4506 2.38533 10.3408 2.71534 10.1213 3.37536L9.78729 4.37274C9.63441 4.77133 9.35821 5.11043 8.99913 5.34042L8.66225 5.53479C8.2435 5.74994 7.76235 5.80994 7.30374 5.70418L6.08351 5.36048C5.36517 5.15664 5.00601 5.05472 4.68843 5.18388C4.37085 5.31305 4.18421 5.63696 3.81091 6.28479L3.31733 7.14139C2.96742 7.74864 2.79246 8.05227 2.82642 8.37549C2.86037 8.69871 3.09459 8.95918 3.56302 9.48012L4.59406 10.6328C4.84606 10.9518 5.02497 11.5078 5.02497 12.0077C5.02497 12.5078 4.84612 13.0636 4.59409 13.3827L3.56302 14.5354C3.09459 15.0564 2.86038 15.3168 2.82642 15.6401C2.79246 15.9633 2.96742 16.2669 3.31733 16.8741L3.8109 17.7307C4.18419 18.3785 4.37085 18.7025 4.68843 18.8316C5.00601 18.9608 5.36518 18.8589 6.08353 18.655L7.3037 18.3113C7.76239 18.2055 8.24363 18.2656 8.66243 18.4808L8.99926 18.6752C9.35827 18.9052 9.6344 19.2442 9.78726 19.6428L10.1213 20.6403C10.3408 21.3003 10.4506 21.6303 10.712 21.8191C10.9734 22.0078 11.3206 22.0078 12.0149 22.0078H13.1297C13.8241 22.0078 14.1713 22.0078 14.4326 21.8191C14.694 21.6303 14.8038 21.3003 15.0234 20.6403L15.3574 19.6428C15.5102 19.2442 15.7863 18.9052 16.1454 18.6752L16.4822 18.4808C16.901 18.2656 17.3822 18.2055 17.8409 18.3113L19.0611 18.655C19.7794 18.8589 20.1386 18.9608 20.4562 18.8316C20.7738 18.7025 20.9604 18.3785 21.3337 17.7307L21.8273 16.8741C22.1772 16.2669 22.3521 15.9633 22.3182 15.6401C22.2842 15.3168 22.05 15.0564 21.5816 14.5354L20.5505 13.3827C20.2985 13.0636 20.1196 12.5078 20.1196 12.0077C20.1196 11.5078 20.2986 10.9518 20.5505 10.6328L21.5816 9.48012C22.05 8.95918 22.2842 8.69871 22.3182 8.37549C22.3521 8.05227 22.1772 7.74864 21.8273 7.14139Z" stroke="#565656" stroke-width="2" stroke-linecap="round"/>
<path d="M16.0293 12C16.0293 13.933 14.4623 15.5 12.5293 15.5C10.5963 15.5 9.0293 13.933 9.0293 12C9.0293 10.067 10.5963 8.5 12.5293 8.5C14.4623 8.5 16.0293 10.067 16.0293 12Z" stroke="#565656" stroke-width="2"/>
</svg>
