<svg width="25" height="24" viewBox="0 0 25 24" fill="none" xmlns="http://www.w3.org/2000/svg">
<path d="M21.6549 18C22.4042 18 23.0002 17.5285 23.5353 16.8691C24.6308 15.5194 22.8322 14.4408 22.1462 13.9126C21.4489 13.3756 20.6703 13.0714 19.8809 13M18.8809 11C20.2616 11 21.3809 9.88071 21.3809 8.5C21.3809 7.11929 20.2616 6 18.8809 6" stroke="#565656" stroke-width="2" stroke-linecap="round"/>
<path d="M4.10682 18C3.35751 18 2.76153 17.5285 2.2264 16.8691C1.13095 15.5194 2.92953 14.4408 3.6155 13.9126C4.31283 13.3756 5.09144 13.0714 5.88086 13M6.38086 11C5.00015 11 3.88086 9.88071 3.88086 8.5C3.88086 7.11929 5.00015 6 6.38086 6" stroke="#565656" stroke-width="2" stroke-linecap="round"/>
<path d="M8.96466 15.1112C7.94288 15.743 5.26384 17.0331 6.89556 18.6474C7.69264 19.436 8.58038 20 9.69648 20H16.0653C17.1814 20 18.0691 19.436 18.8662 18.6474C20.4979 17.0331 17.8189 15.743 16.7971 15.1112C14.401 13.6296 11.3607 13.6296 8.96466 15.1112Z" stroke="#565656" stroke-width="2" stroke-linecap="round" stroke-linejoin="round"/>
<path d="M16.3809 7.5C16.3809 9.433 14.8139 11 12.8809 11C10.9479 11 9.38086 9.433 9.38086 7.5C9.38086 5.567 10.9479 4 12.8809 4C14.8139 4 16.3809 5.567 16.3809 7.5Z" stroke="#565656" stroke-width="2"/>
</svg>
